<svg xmlns="http://www.w3.org/2000/svg" width="1160" height="700" viewBox="0 0 1160 700" role="img" aria-labelledby="title desc">
<title>MerchBench model frontier</title>
<desc>Scatter plot of model quality by estimated cost burden.</desc>
<rect width="1160" height="700" fill="#f7f4ee"/>
<rect x="150" y="82" width="850" height="450" rx="8" fill="#fffdf8" stroke="#d8ddd5"/>
<line x1="150.0" y1="82" x2="150.0" y2="532" stroke="#e5e1d8"/>
<text x="150.0" y="560" text-anchor="middle" font-size="12" fill="#5e675f">0</text>
<line x1="320.0" y1="82" x2="320.0" y2="532" stroke="#e5e1d8"/>
<text x="320.0" y="560" text-anchor="middle" font-size="12" fill="#5e675f">2</text>
<line x1="490.0" y1="82" x2="490.0" y2="532" stroke="#e5e1d8"/>
<text x="490.0" y="560" text-anchor="middle" font-size="12" fill="#5e675f">4</text>
<line x1="660.0" y1="82" x2="660.0" y2="532" stroke="#e5e1d8"/>
<text x="660.0" y="560" text-anchor="middle" font-size="12" fill="#5e675f">6</text>
<line x1="830.0" y1="82" x2="830.0" y2="532" stroke="#e5e1d8"/>
<text x="830.0" y="560" text-anchor="middle" font-size="12" fill="#5e675f">8</text>
<line x1="1000.0" y1="82" x2="1000.0" y2="532" stroke="#e5e1d8"/>
<text x="1000.0" y="560" text-anchor="middle" font-size="12" fill="#5e675f">10</text>
<line x1="150" y1="532.0" x2="1000" y2="532.0" stroke="#e5e1d8"/>
<text x="134" y="536.0" text-anchor="end" font-size="12" fill="#5e675f">2</text>
<line x1="150" y1="459.4" x2="1000" y2="459.4" stroke="#e5e1d8"/>
<text x="134" y="463.4" text-anchor="end" font-size="12" fill="#5e675f">3</text>
<line x1="150" y1="386.8" x2="1000" y2="386.8" stroke="#e5e1d8"/>
<text x="134" y="390.8" text-anchor="end" font-size="12" fill="#5e675f">4</text>
<line x1="150" y1="314.3" x2="1000" y2="314.3" stroke="#e5e1d8"/>
<text x="134" y="318.3" text-anchor="end" font-size="12" fill="#5e675f">5</text>
<line x1="150" y1="241.7" x2="1000" y2="241.7" stroke="#e5e1d8"/>
<text x="134" y="245.7" text-anchor="end" font-size="12" fill="#5e675f">6</text>
<line x1="150" y1="169.1" x2="1000" y2="169.1" stroke="#e5e1d8"/>
<text x="134" y="173.1" text-anchor="end" font-size="12" fill="#5e675f">7</text>
<line x1="150" y1="96.5" x2="1000" y2="96.5" stroke="#e5e1d8"/>
<text x="134" y="100.5" text-anchor="end" font-size="12" fill="#5e675f">8</text>
<text x="575.0" y="604" text-anchor="middle" font-size="14" fill="#17211b">Estimated cost burden index</text>
<text x="150" y="62" font-size="14" fill="#17211b">Retail judgment quality score</text>
<circle cx="167.0" cy="507.8" r="13.6" fill="#6d5375" stroke="#fffdf8" stroke-width="2" opacity=".72"/>
<text x="185.0" y="499.8" text-anchor="start" font-size="12" fill="#17211b">LFM local 1.2B</text>
<circle cx="167.0" cy="443.8" r="7.5" fill="#6d5375" stroke="#fffdf8" stroke-width="2" opacity=".72"/>
<text x="185.0" y="460.8" text-anchor="start" font-size="12" fill="#17211b">Llama 3.2 local</text>
<circle cx="167.0" cy="429.3" r="11.9" fill="#6d5375" stroke="#17211b" stroke-width="2" opacity="1"/>
<text x="149.0" y="411.3" text-anchor="end" font-size="12" fill="#17211b">Gemma local</text>
<circle cx="167.0" cy="326.2" r="7.8" fill="#6d5375" stroke="#fffdf8" stroke-width="2" opacity=".72"/>
<text x="185.0" y="330.2" text-anchor="start" font-size="12" fill="#17211b">Llama 3.3 70B</text>
<circle cx="445.0" cy="300.8" r="8.0" fill="#b85f42" stroke="#17211b" stroke-width="2" opacity="1"/>
<text x="460.9" y="304.8" text-anchor="start" font-size="12" fill="#17211b">GPT-4.1 Nano</text>
<circle cx="167.0" cy="288.3" r="8.0" fill="#b85f42" stroke="#fffdf8" stroke-width="2" opacity=".72"/>
<text x="185.0" y="292.3" text-anchor="start" font-size="12" fill="#17211b">Llama 4 Scout 17B</text>
<circle cx="167.0" cy="268.1" r="11.3" fill="#b85f42" stroke="#fffdf8" stroke-width="2" opacity=".72"/>
<text x="189.0" y="272.1" text-anchor="start" font-size="12" fill="#17211b">Qwen3 32B</text>
<circle cx="470.4" cy="262.1" r="8.8" fill="#b85f42" stroke="#17211b" stroke-width="2" opacity="1"/>
<text x="487.2" y="266.1" text-anchor="start" font-size="12" fill="#17211b">GPT-5 Nano</text>
<circle cx="167.0" cy="243.3" r="11.5" fill="#b85f42" stroke="#fffdf8" stroke-width="2" opacity=".72"/>
<text x="189.0" y="247.3" text-anchor="start" font-size="12" fill="#17211b">GPT-OSS 120B</text>
<circle cx="168.0" cy="180.2" r="16.0" fill="#c8912f" stroke="#17211b" stroke-width="2" opacity="1"/>
<text x="194.0" y="184.2" text-anchor="start" font-size="12" fill="#17211b">Z.ai GLM 4.7</text>
<circle cx="737.4" cy="167.8" r="11.0" fill="#c8912f" stroke="#17211b" stroke-width="2" opacity="1"/>
<text x="756.3" y="171.8" text-anchor="start" font-size="12" fill="#17211b">GPT-5 Mini</text>
<circle cx="758.6" cy="142.3" r="8.8" fill="#c8912f" stroke="#17211b" stroke-width="2" opacity="1"/>
<text x="775.4" y="146.3" text-anchor="start" font-size="12" fill="#17211b">GPT-5.4 Mini</text>
<circle cx="930.3" cy="140.7" r="9.5" fill="#c8912f" stroke="#17211b" stroke-width="2" opacity="1"/>
<text x="912.8" y="144.7" text-anchor="end" font-size="12" fill="#17211b">GPT-5.4</text>
<circle cx="988.8" cy="135.6" r="9.2" fill="#c8912f" stroke="#17211b" stroke-width="2" opacity="1"/>
<text x="971.6" y="139.6" text-anchor="end" font-size="12" fill="#17211b">GPT-5.5</text>
<text x="84" y="32" font-size="20" font-weight="700" fill="#17211b">Quality-cost frontier</text>
<text x="150" y="672" font-size="12" fill="#5e675f">Outlined marks are on the measured Pareto frontier. Bubble size reflects response-token burden, not p95 production latency.</text>
</svg>
