<svg xmlns="http://www.w3.org/2000/svg" width="980" height="560" viewBox="0 0 980 560" role="img" aria-labelledby="title desc">
<title>MerchBench model frontier</title>
<desc>Scatter plot of model quality by estimated cost burden.</desc>
<rect width="980" height="560" fill="#f7f4ee"/>
<rect x="84" y="56" width="800" height="410" rx="8" fill="#fffdf8" stroke="#d8ddd5"/>
<line x1="84.0" y1="56" x2="84.0" y2="466" stroke="#e5e1d8"/>
<text x="84.0" y="494" text-anchor="middle" font-size="12" fill="#5e675f">0</text>
<line x1="244.0" y1="56" x2="244.0" y2="466" stroke="#e5e1d8"/>
<text x="244.0" y="494" text-anchor="middle" font-size="12" fill="#5e675f">2</text>
<line x1="404.0" y1="56" x2="404.0" y2="466" stroke="#e5e1d8"/>
<text x="404.0" y="494" text-anchor="middle" font-size="12" fill="#5e675f">4</text>
<line x1="564.0" y1="56" x2="564.0" y2="466" stroke="#e5e1d8"/>
<text x="564.0" y="494" text-anchor="middle" font-size="12" fill="#5e675f">6</text>
<line x1="724.0" y1="56" x2="724.0" y2="466" stroke="#e5e1d8"/>
<text x="724.0" y="494" text-anchor="middle" font-size="12" fill="#5e675f">8</text>
<line x1="884.0" y1="56" x2="884.0" y2="466" stroke="#e5e1d8"/>
<text x="884.0" y="494" text-anchor="middle" font-size="12" fill="#5e675f">10</text>
<line x1="84" y1="422.4" x2="884" y2="422.4" stroke="#e5e1d8"/>
<text x="68" y="426.4" text-anchor="end" font-size="12" fill="#5e675f">4</text>
<line x1="84" y1="335.1" x2="884" y2="335.1" stroke="#e5e1d8"/>
<text x="68" y="339.1" text-anchor="end" font-size="12" fill="#5e675f">5</text>
<line x1="84" y1="247.9" x2="884" y2="247.9" stroke="#e5e1d8"/>
<text x="68" y="251.9" text-anchor="end" font-size="12" fill="#5e675f">6</text>
<line x1="84" y1="160.7" x2="884" y2="160.7" stroke="#e5e1d8"/>
<text x="68" y="164.7" text-anchor="end" font-size="12" fill="#5e675f">7</text>
<line x1="84" y1="73.4" x2="884" y2="73.4" stroke="#e5e1d8"/>
<text x="68" y="77.4" text-anchor="end" font-size="12" fill="#5e675f">8</text>
<text x="484.0" y="530" text-anchor="middle" font-size="14" fill="#17211b">Estimated cost burden index</text>
<text x="24" y="261.0" transform="rotate(-90 24 261.0)" text-anchor="middle" font-size="14" fill="#17211b">Retail judgment quality score</text>
<circle cx="100.0" cy="567.8" r="13.6" fill="#6d5375" stroke="#fffdf8" stroke-width="2" opacity=".72"/>
<text x="112.0" y="571.8" text-anchor="start" font-size="12" fill="#17211b">LFM local 1.2B</text>
<circle cx="100.0" cy="490.9" r="7.5" fill="#6d5375" stroke="#fffdf8" stroke-width="2" opacity=".72"/>
<text x="112.0" y="494.9" text-anchor="start" font-size="12" fill="#17211b">Llama 3.2 local</text>
<circle cx="100.0" cy="473.5" r="11.9" fill="#6d5375" stroke="#17211b" stroke-width="2" opacity="1"/>
<text x="112.0" y="477.5" text-anchor="start" font-size="12" fill="#17211b">Gemma local</text>
<circle cx="100.0" cy="349.5" r="7.8" fill="#6d5375" stroke="#fffdf8" stroke-width="2" opacity=".72"/>
<text x="112.0" y="353.5" text-anchor="start" font-size="12" fill="#17211b">Llama 3.3 70B</text>
<circle cx="361.6" cy="318.9" r="8.0" fill="#b85f42" stroke="#17211b" stroke-width="2" opacity="1"/>
<text x="373.6" y="322.9" text-anchor="start" font-size="12" fill="#17211b">GPT-4.1 Nano</text>
<circle cx="100.0" cy="303.9" r="8.0" fill="#b85f42" stroke="#fffdf8" stroke-width="2" opacity=".72"/>
<text x="112.0" y="307.9" text-anchor="start" font-size="12" fill="#17211b">Llama 4 Scout 17B</text>
<circle cx="100.0" cy="279.7" r="11.3" fill="#b85f42" stroke="#fffdf8" stroke-width="2" opacity=".72"/>
<text x="112.0" y="283.7" text-anchor="start" font-size="12" fill="#17211b">Qwen3 32B</text>
<circle cx="385.6" cy="272.4" r="8.8" fill="#b85f42" stroke="#17211b" stroke-width="2" opacity="1"/>
<text x="397.6" y="276.4" text-anchor="start" font-size="12" fill="#17211b">GPT-5 Nano</text>
<circle cx="100.0" cy="249.8" r="11.5" fill="#b85f42" stroke="#fffdf8" stroke-width="2" opacity=".72"/>
<text x="112.0" y="253.8" text-anchor="start" font-size="12" fill="#17211b">GPT-OSS 120B</text>
<circle cx="100.0" cy="174.0" r="16.0" fill="#c8912f" stroke="#17211b" stroke-width="2" opacity="1"/>
<text x="112.0" y="178.0" text-anchor="start" font-size="12" fill="#17211b">Z.ai GLM 4.7</text>
<circle cx="636.8" cy="159.2" r="11.0" fill="#c8912f" stroke="#17211b" stroke-width="2" opacity="1"/>
<text x="648.8" y="163.2" text-anchor="start" font-size="12" fill="#17211b">GPT-5 Mini</text>
<circle cx="656.8" cy="128.5" r="8.8" fill="#c8912f" stroke="#17211b" stroke-width="2" opacity="1"/>
<text x="668.8" y="132.5" text-anchor="start" font-size="12" fill="#17211b">GPT-5.4 Mini</text>
<circle cx="818.4" cy="126.6" r="9.5" fill="#c8912f" stroke="#17211b" stroke-width="2" opacity="1"/>
<text x="806.4" y="130.6" text-anchor="end" font-size="12" fill="#17211b">GPT-5.4</text>
<circle cx="884.0" cy="120.4" r="9.2" fill="#c8912f" stroke="#17211b" stroke-width="2" opacity="1"/>
<text x="872.0" y="124.4" text-anchor="end" font-size="12" fill="#17211b">GPT-5.5</text>
<text x="84" y="32" font-size="20" font-weight="700" fill="#17211b">Quality-cost frontier</text>
<text x="84" y="492" font-size="12" fill="#5e675f">Outlined marks are on the measured Pareto frontier. Bubble size reflects response-token burden, not p95 production latency.</text>
</svg>
