<svg xmlns="http://www.w3.org/2000/svg" width="1136" height="414" viewBox="0 0 1136 414" role="img" aria-labelledby="title desc">
<title>OpenAI segment heatmap</title>
<desc>Heatmap of OpenAI GPT-5 model scores by retail decision segment.</desc>
<rect width="1136" height="414" fill="#f7f4ee"/>
<text x="24" y="34" font-size="20" font-weight="700" fill="#17211b">OpenAI ladder by retail segment</text>
<rect x="166" y="54" width="936" height="70" rx="6" fill="#f7f4ee"/>
<text x="232.0" y="76" text-anchor="middle" font-size="11" font-weight="700" fill="#17211b">
<tspan x="232.0" dy="0">Summary</tspan>
</text>
<text x="348.0" y="76" text-anchor="middle" font-size="11" font-weight="700" fill="#17211b">
<tspan x="348.0" dy="0">Structured</tspan>
<tspan x="348.0" dy="13">extract</tspan>
</text>
<text x="464.0" y="76" text-anchor="middle" font-size="11" font-weight="700" fill="#17211b">
<tspan x="464.0" dy="0">Constraint</tspan>
<tspan x="464.0" dy="13">check</tspan>
</text>
<text x="580.0" y="76" text-anchor="middle" font-size="11" font-weight="700" fill="#17211b">
<tspan x="580.0" dy="0">Routine</tspan>
<tspan x="580.0" dy="13">plan</tspan>
</text>
<text x="696.0" y="76" text-anchor="middle" font-size="11" font-weight="700" fill="#17211b">
<tspan x="696.0" dy="0">Pricing</tspan>
<tspan x="696.0" dy="13">promo</tspan>
</text>
<text x="812.0" y="76" text-anchor="middle" font-size="11" font-weight="700" fill="#17211b">
<tspan x="812.0" dy="0">Ambiguous</tspan>
<tspan x="812.0" dy="13">judgment</tspan>
</text>
<text x="928.0" y="76" text-anchor="middle" font-size="11" font-weight="700" fill="#17211b">
<tspan x="928.0" dy="0">Portfolio</tspan>
<tspan x="928.0" dy="13">tradeoff</tspan>
</text>
<text x="1044.0" y="76" text-anchor="middle" font-size="11" font-weight="700" fill="#17211b">
<tspan x="1044.0" dy="0">Ops</tspan>
<tspan x="1044.0" dy="13">triage</tspan>
</text>
<text x="24" y="171" font-size="13" font-weight="700" fill="#17211b">GPT-5.5</text>
<rect x="174" y="142" width="112" height="42" rx="4" fill="#c8912f"/>
<text x="230.0" y="169" text-anchor="middle" font-size="12" font-weight="700" fill="#fffdf8">7.1</text>
<rect x="290" y="142" width="112" height="42" rx="4" fill="#277c78"/>
<text x="346.0" y="169" text-anchor="middle" font-size="12" font-weight="700" fill="#fffdf8">8.4</text>
<rect x="406" y="142" width="112" height="42" rx="4" fill="#88a88f"/>
<text x="462.0" y="169" text-anchor="middle" font-size="12" font-weight="700" fill="#fffdf8">7.8</text>
<rect x="522" y="142" width="112" height="42" rx="4" fill="#c8912f"/>
<text x="578.0" y="169" text-anchor="middle" font-size="12" font-weight="700" fill="#fffdf8">7.0</text>
<rect x="638" y="142" width="112" height="42" rx="4" fill="#c8912f"/>
<text x="694.0" y="169" text-anchor="middle" font-size="12" font-weight="700" fill="#fffdf8">6.8</text>
<rect x="754" y="142" width="112" height="42" rx="4" fill="#88a88f"/>
<text x="810.0" y="169" text-anchor="middle" font-size="12" font-weight="700" fill="#fffdf8">7.7</text>
<rect x="870" y="142" width="112" height="42" rx="4" fill="#c8912f"/>
<text x="926.0" y="169" text-anchor="middle" font-size="12" font-weight="700" fill="#fffdf8">7.1</text>
<rect x="986" y="142" width="112" height="42" rx="4" fill="#88a88f"/>
<text x="1042.0" y="169" text-anchor="middle" font-size="12" font-weight="700" fill="#fffdf8">7.5</text>
<text x="24" y="217" font-size="13" font-weight="700" fill="#17211b">GPT-5.4</text>
<rect x="174" y="188" width="112" height="42" rx="4" fill="#88a88f"/>
<text x="230.0" y="215" text-anchor="middle" font-size="12" font-weight="700" fill="#fffdf8">7.6</text>
<rect x="290" y="188" width="112" height="42" rx="4" fill="#88a88f"/>
<text x="346.0" y="215" text-anchor="middle" font-size="12" font-weight="700" fill="#fffdf8">8.1</text>
<rect x="406" y="188" width="112" height="42" rx="4" fill="#277c78"/>
<text x="462.0" y="215" text-anchor="middle" font-size="12" font-weight="700" fill="#fffdf8">8.3</text>
<rect x="522" y="188" width="112" height="42" rx="4" fill="#c8912f"/>
<text x="578.0" y="215" text-anchor="middle" font-size="12" font-weight="700" fill="#fffdf8">7.0</text>
<rect x="638" y="188" width="112" height="42" rx="4" fill="#b85f42"/>
<text x="694.0" y="215" text-anchor="middle" font-size="12" font-weight="700" fill="#fffdf8">6.5</text>
<rect x="754" y="188" width="112" height="42" rx="4" fill="#277c78"/>
<text x="810.0" y="215" text-anchor="middle" font-size="12" font-weight="700" fill="#fffdf8">8.5</text>
<rect x="870" y="188" width="112" height="42" rx="4" fill="#b85f42"/>
<text x="926.0" y="215" text-anchor="middle" font-size="12" font-weight="700" fill="#fffdf8">5.4</text>
<rect x="986" y="188" width="112" height="42" rx="4" fill="#c8912f"/>
<text x="1042.0" y="215" text-anchor="middle" font-size="12" font-weight="700" fill="#fffdf8">7.3</text>
<text x="24" y="263" font-size="13" font-weight="700" fill="#17211b">GPT-5.4 Mini</text>
<rect x="174" y="234" width="112" height="42" rx="4" fill="#88a88f"/>
<text x="230.0" y="261" text-anchor="middle" font-size="12" font-weight="700" fill="#fffdf8">7.5</text>
<rect x="290" y="234" width="112" height="42" rx="4" fill="#277c78"/>
<text x="346.0" y="261" text-anchor="middle" font-size="12" font-weight="700" fill="#fffdf8">8.4</text>
<rect x="406" y="234" width="112" height="42" rx="4" fill="#c8912f"/>
<text x="462.0" y="261" text-anchor="middle" font-size="12" font-weight="700" fill="#fffdf8">7.1</text>
<rect x="522" y="234" width="112" height="42" rx="4" fill="#c8912f"/>
<text x="578.0" y="261" text-anchor="middle" font-size="12" font-weight="700" fill="#fffdf8">6.7</text>
<rect x="638" y="234" width="112" height="42" rx="4" fill="#b85f42"/>
<text x="694.0" y="261" text-anchor="middle" font-size="12" font-weight="700" fill="#fffdf8">6.3</text>
<rect x="754" y="234" width="112" height="42" rx="4" fill="#c8912f"/>
<text x="810.0" y="261" text-anchor="middle" font-size="12" font-weight="700" fill="#fffdf8">7.3</text>
<rect x="870" y="234" width="112" height="42" rx="4" fill="#88a88f"/>
<text x="926.0" y="261" text-anchor="middle" font-size="12" font-weight="700" fill="#fffdf8">8.0</text>
<rect x="986" y="234" width="112" height="42" rx="4" fill="#c8912f"/>
<text x="1042.0" y="261" text-anchor="middle" font-size="12" font-weight="700" fill="#fffdf8">6.8</text>
<text x="24" y="309" font-size="13" font-weight="700" fill="#17211b">GPT-5 Mini</text>
<rect x="174" y="280" width="112" height="42" rx="4" fill="#88a88f"/>
<text x="230.0" y="307" text-anchor="middle" font-size="12" font-weight="700" fill="#fffdf8">8.1</text>
<rect x="290" y="280" width="112" height="42" rx="4" fill="#277c78"/>
<text x="346.0" y="307" text-anchor="middle" font-size="12" font-weight="700" fill="#fffdf8">8.6</text>
<rect x="406" y="280" width="112" height="42" rx="4" fill="#88a88f"/>
<text x="462.0" y="307" text-anchor="middle" font-size="12" font-weight="700" fill="#fffdf8">7.8</text>
<rect x="522" y="280" width="112" height="42" rx="4" fill="#b85f42"/>
<text x="578.0" y="307" text-anchor="middle" font-size="12" font-weight="700" fill="#fffdf8">6.2</text>
<rect x="638" y="280" width="112" height="42" rx="4" fill="#b85f42"/>
<text x="694.0" y="307" text-anchor="middle" font-size="12" font-weight="700" fill="#fffdf8">5.7</text>
<rect x="754" y="280" width="112" height="42" rx="4" fill="#b85f42"/>
<text x="810.0" y="307" text-anchor="middle" font-size="12" font-weight="700" fill="#fffdf8">5.7</text>
<rect x="870" y="280" width="112" height="42" rx="4" fill="#88a88f"/>
<text x="926.0" y="307" text-anchor="middle" font-size="12" font-weight="700" fill="#fffdf8">8.1</text>
<rect x="986" y="280" width="112" height="42" rx="4" fill="#6d5375"/>
<text x="1042.0" y="307" text-anchor="middle" font-size="12" font-weight="700" fill="#fffdf8">4.7</text>
<text x="24" y="355" font-size="13" font-weight="700" fill="#17211b">GPT-5 Nano</text>
<rect x="174" y="326" width="112" height="42" rx="4" fill="#c8912f"/>
<text x="230.0" y="353" text-anchor="middle" font-size="12" font-weight="700" fill="#fffdf8">6.6</text>
<rect x="290" y="326" width="112" height="42" rx="4" fill="#c8912f"/>
<text x="346.0" y="353" text-anchor="middle" font-size="12" font-weight="700" fill="#fffdf8">6.8</text>
<rect x="406" y="326" width="112" height="42" rx="4" fill="#b85f42"/>
<text x="462.0" y="353" text-anchor="middle" font-size="12" font-weight="700" fill="#fffdf8">6.1</text>
<rect x="522" y="326" width="112" height="42" rx="4" fill="#b85f42"/>
<text x="578.0" y="353" text-anchor="middle" font-size="12" font-weight="700" fill="#fffdf8">6.0</text>
<rect x="638" y="326" width="112" height="42" rx="4" fill="#6d5375"/>
<text x="694.0" y="353" text-anchor="middle" font-size="12" font-weight="700" fill="#fffdf8">4.7</text>
<rect x="754" y="326" width="112" height="42" rx="4" fill="#6d5375"/>
<text x="810.0" y="353" text-anchor="middle" font-size="12" font-weight="700" fill="#fffdf8">3.6</text>
<rect x="870" y="326" width="112" height="42" rx="4" fill="#c8912f"/>
<text x="926.0" y="353" text-anchor="middle" font-size="12" font-weight="700" fill="#fffdf8">7.2</text>
<rect x="986" y="326" width="112" height="42" rx="4" fill="#6d5375"/>
<text x="1042.0" y="353" text-anchor="middle" font-size="12" font-weight="700" fill="#fffdf8">3.7</text>
</svg>
