<svg xmlns="http://www.w3.org/2000/svg" width="990" height="358" viewBox="0 0 990 358" role="img" aria-labelledby="title desc">
<title>OpenAI segment heatmap</title>
<desc>Heatmap of OpenAI GPT-5 model scores by retail decision segment.</desc>
<rect width="990" height="358" fill="#f7f4ee"/>
<text x="24" y="34" font-size="20" font-weight="700" fill="#17211b">OpenAI ladder by retail segment</text>
<text x="221.0" y="72" transform="rotate(-35 221.0 72)" text-anchor="end" font-size="11" fill="#5e675f">Summarization</text>
<text x="319.0" y="72" transform="rotate(-35 319.0 72)" text-anchor="end" font-size="11" fill="#5e675f">Extraction</text>
<text x="417.0" y="72" transform="rotate(-35 417.0 72)" text-anchor="end" font-size="11" fill="#5e675f">Constraint checks</text>
<text x="515.0" y="72" transform="rotate(-35 515.0 72)" text-anchor="end" font-size="11" fill="#5e675f">Routine planning</text>
<text x="613.0" y="72" transform="rotate(-35 613.0 72)" text-anchor="end" font-size="11" fill="#5e675f">Pricing &amp; promo</text>
<text x="711.0" y="72" transform="rotate(-35 711.0 72)" text-anchor="end" font-size="11" fill="#5e675f">Ambiguous judgment</text>
<text x="809.0" y="72" transform="rotate(-35 809.0 72)" text-anchor="end" font-size="11" fill="#5e675f">Portfolio tradeoff</text>
<text x="907.0" y="72" transform="rotate(-35 907.0 72)" text-anchor="end" font-size="11" fill="#5e675f">Ops triage</text>
<text x="24" y="115" font-size="13" font-weight="700" fill="#17211b">GPT-5.5</text>
<rect x="172" y="86" width="94" height="42" rx="4" fill="#c8912f"/>
<text x="219.0" y="113" text-anchor="middle" font-size="12" font-weight="700" fill="#fffdf8">7.1</text>
<rect x="270" y="86" width="94" height="42" rx="4" fill="#277c78"/>
<text x="317.0" y="113" text-anchor="middle" font-size="12" font-weight="700" fill="#fffdf8">8.4</text>
<rect x="368" y="86" width="94" height="42" rx="4" fill="#88a88f"/>
<text x="415.0" y="113" text-anchor="middle" font-size="12" font-weight="700" fill="#fffdf8">7.8</text>
<rect x="466" y="86" width="94" height="42" rx="4" fill="#c8912f"/>
<text x="513.0" y="113" text-anchor="middle" font-size="12" font-weight="700" fill="#fffdf8">7.0</text>
<rect x="564" y="86" width="94" height="42" rx="4" fill="#c8912f"/>
<text x="611.0" y="113" text-anchor="middle" font-size="12" font-weight="700" fill="#fffdf8">6.8</text>
<rect x="662" y="86" width="94" height="42" rx="4" fill="#88a88f"/>
<text x="709.0" y="113" text-anchor="middle" font-size="12" font-weight="700" fill="#fffdf8">7.7</text>
<rect x="760" y="86" width="94" height="42" rx="4" fill="#c8912f"/>
<text x="807.0" y="113" text-anchor="middle" font-size="12" font-weight="700" fill="#fffdf8">7.1</text>
<rect x="858" y="86" width="94" height="42" rx="4" fill="#88a88f"/>
<text x="905.0" y="113" text-anchor="middle" font-size="12" font-weight="700" fill="#fffdf8">7.5</text>
<text x="24" y="161" font-size="13" font-weight="700" fill="#17211b">GPT-5.4</text>
<rect x="172" y="132" width="94" height="42" rx="4" fill="#88a88f"/>
<text x="219.0" y="159" text-anchor="middle" font-size="12" font-weight="700" fill="#fffdf8">7.6</text>
<rect x="270" y="132" width="94" height="42" rx="4" fill="#88a88f"/>
<text x="317.0" y="159" text-anchor="middle" font-size="12" font-weight="700" fill="#fffdf8">8.1</text>
<rect x="368" y="132" width="94" height="42" rx="4" fill="#277c78"/>
<text x="415.0" y="159" text-anchor="middle" font-size="12" font-weight="700" fill="#fffdf8">8.3</text>
<rect x="466" y="132" width="94" height="42" rx="4" fill="#c8912f"/>
<text x="513.0" y="159" text-anchor="middle" font-size="12" font-weight="700" fill="#fffdf8">7.0</text>
<rect x="564" y="132" width="94" height="42" rx="4" fill="#b85f42"/>
<text x="611.0" y="159" text-anchor="middle" font-size="12" font-weight="700" fill="#fffdf8">6.5</text>
<rect x="662" y="132" width="94" height="42" rx="4" fill="#277c78"/>
<text x="709.0" y="159" text-anchor="middle" font-size="12" font-weight="700" fill="#fffdf8">8.5</text>
<rect x="760" y="132" width="94" height="42" rx="4" fill="#b85f42"/>
<text x="807.0" y="159" text-anchor="middle" font-size="12" font-weight="700" fill="#fffdf8">5.4</text>
<rect x="858" y="132" width="94" height="42" rx="4" fill="#c8912f"/>
<text x="905.0" y="159" text-anchor="middle" font-size="12" font-weight="700" fill="#fffdf8">7.3</text>
<text x="24" y="207" font-size="13" font-weight="700" fill="#17211b">GPT-5.4 Mini</text>
<rect x="172" y="178" width="94" height="42" rx="4" fill="#88a88f"/>
<text x="219.0" y="205" text-anchor="middle" font-size="12" font-weight="700" fill="#fffdf8">7.5</text>
<rect x="270" y="178" width="94" height="42" rx="4" fill="#277c78"/>
<text x="317.0" y="205" text-anchor="middle" font-size="12" font-weight="700" fill="#fffdf8">8.4</text>
<rect x="368" y="178" width="94" height="42" rx="4" fill="#c8912f"/>
<text x="415.0" y="205" text-anchor="middle" font-size="12" font-weight="700" fill="#fffdf8">7.1</text>
<rect x="466" y="178" width="94" height="42" rx="4" fill="#c8912f"/>
<text x="513.0" y="205" text-anchor="middle" font-size="12" font-weight="700" fill="#fffdf8">6.7</text>
<rect x="564" y="178" width="94" height="42" rx="4" fill="#b85f42"/>
<text x="611.0" y="205" text-anchor="middle" font-size="12" font-weight="700" fill="#fffdf8">6.3</text>
<rect x="662" y="178" width="94" height="42" rx="4" fill="#c8912f"/>
<text x="709.0" y="205" text-anchor="middle" font-size="12" font-weight="700" fill="#fffdf8">7.3</text>
<rect x="760" y="178" width="94" height="42" rx="4" fill="#88a88f"/>
<text x="807.0" y="205" text-anchor="middle" font-size="12" font-weight="700" fill="#fffdf8">8.0</text>
<rect x="858" y="178" width="94" height="42" rx="4" fill="#c8912f"/>
<text x="905.0" y="205" text-anchor="middle" font-size="12" font-weight="700" fill="#fffdf8">6.8</text>
<text x="24" y="253" font-size="13" font-weight="700" fill="#17211b">GPT-5 Mini</text>
<rect x="172" y="224" width="94" height="42" rx="4" fill="#88a88f"/>
<text x="219.0" y="251" text-anchor="middle" font-size="12" font-weight="700" fill="#fffdf8">8.1</text>
<rect x="270" y="224" width="94" height="42" rx="4" fill="#277c78"/>
<text x="317.0" y="251" text-anchor="middle" font-size="12" font-weight="700" fill="#fffdf8">8.6</text>
<rect x="368" y="224" width="94" height="42" rx="4" fill="#88a88f"/>
<text x="415.0" y="251" text-anchor="middle" font-size="12" font-weight="700" fill="#fffdf8">7.8</text>
<rect x="466" y="224" width="94" height="42" rx="4" fill="#b85f42"/>
<text x="513.0" y="251" text-anchor="middle" font-size="12" font-weight="700" fill="#fffdf8">6.2</text>
<rect x="564" y="224" width="94" height="42" rx="4" fill="#b85f42"/>
<text x="611.0" y="251" text-anchor="middle" font-size="12" font-weight="700" fill="#fffdf8">5.7</text>
<rect x="662" y="224" width="94" height="42" rx="4" fill="#b85f42"/>
<text x="709.0" y="251" text-anchor="middle" font-size="12" font-weight="700" fill="#fffdf8">5.7</text>
<rect x="760" y="224" width="94" height="42" rx="4" fill="#88a88f"/>
<text x="807.0" y="251" text-anchor="middle" font-size="12" font-weight="700" fill="#fffdf8">8.1</text>
<rect x="858" y="224" width="94" height="42" rx="4" fill="#6d5375"/>
<text x="905.0" y="251" text-anchor="middle" font-size="12" font-weight="700" fill="#fffdf8">4.7</text>
<text x="24" y="299" font-size="13" font-weight="700" fill="#17211b">GPT-5 Nano</text>
<rect x="172" y="270" width="94" height="42" rx="4" fill="#c8912f"/>
<text x="219.0" y="297" text-anchor="middle" font-size="12" font-weight="700" fill="#fffdf8">6.6</text>
<rect x="270" y="270" width="94" height="42" rx="4" fill="#c8912f"/>
<text x="317.0" y="297" text-anchor="middle" font-size="12" font-weight="700" fill="#fffdf8">6.8</text>
<rect x="368" y="270" width="94" height="42" rx="4" fill="#b85f42"/>
<text x="415.0" y="297" text-anchor="middle" font-size="12" font-weight="700" fill="#fffdf8">6.1</text>
<rect x="466" y="270" width="94" height="42" rx="4" fill="#b85f42"/>
<text x="513.0" y="297" text-anchor="middle" font-size="12" font-weight="700" fill="#fffdf8">6.0</text>
<rect x="564" y="270" width="94" height="42" rx="4" fill="#6d5375"/>
<text x="611.0" y="297" text-anchor="middle" font-size="12" font-weight="700" fill="#fffdf8">4.7</text>
<rect x="662" y="270" width="94" height="42" rx="4" fill="#6d5375"/>
<text x="709.0" y="297" text-anchor="middle" font-size="12" font-weight="700" fill="#fffdf8">3.6</text>
<rect x="760" y="270" width="94" height="42" rx="4" fill="#c8912f"/>
<text x="807.0" y="297" text-anchor="middle" font-size="12" font-weight="700" fill="#fffdf8">7.2</text>
<rect x="858" y="270" width="94" height="42" rx="4" fill="#6d5375"/>
<text x="905.0" y="297" text-anchor="middle" font-size="12" font-weight="700" fill="#fffdf8">3.7</text>
</svg>
