<svg xmlns="http://www.w3.org/2000/svg" width="1280" height="1580" viewBox="0 0 1280 1580" role="img" aria-labelledby="title desc">
<title>MerchBench segment routing quadrants</title>
<desc>Small-multiple 2x2 charts plotting model segment quality by economic burden.</desc>
<rect width="1280" height="1580" fill="#f7f4ee"/>
<text x="34" y="42" font-size="24" font-weight="800" fill="#17211b">Segment routing quadrants</text>
<text x="34" y="68" font-size="13" fill="#5e675f">Each panel plots segment score against cost burden. Black rings mark economic picks; star labels mark quality leaders.</text>
<text x="34" y="92" font-size="12" fill="#5e675f">Crosshairs: score 7.0 proxy floor and cost-burden 7.5 premium boundary. Bubble size reflects response-token burden.</text>
<rect x="40" y="116" width="580" height="320" rx="10" fill="#fffdf8" stroke="#d8ddd5"/>
<text x="54" y="144" font-size="15" font-weight="800" fill="#17211b">Summarization</text>
<rect x="82" y="164" width="388.5" height="62.85714285714286" fill="#dfeee8"/>
<rect x="470.5" y="164" width="129.5" height="62.85714285714286" fill="#f3e7c8"/>
<rect x="82" y="226.85714285714286" width="388.5" height="157.14285714285714" fill="#f6e7dc"/>
<rect x="470.5" y="226.85714285714286" width="129.5" height="157.14285714285714" fill="#eee7f1"/>
<rect x="82" y="164" width="518" height="220" fill="none" stroke="#d8ddd5"/>
<line x1="470.5" y1="164" x2="470.5" y2="384" stroke="#17211b" stroke-width="1" stroke-dasharray="4 4" opacity=".42"/>
<line x1="82" y1="226.9" x2="600" y2="226.9" stroke="#17211b" stroke-width="1" stroke-dasharray="4 4" opacity=".42"/>
<text x="73" y="168.0" text-anchor="end" font-size="10" fill="#5e675f">9</text>
<text x="73" y="230.9" text-anchor="end" font-size="10" fill="#5e675f">7</text>
<text x="73" y="388.0" text-anchor="end" font-size="10" fill="#5e675f">2</text>
<text x="82" y="404" font-size="10" fill="#5e675f">low cost</text>
<text x="600" y="404" text-anchor="end" font-size="10" fill="#5e675f">premium</text>
<circle cx="92.4" cy="352.7" r="7.3" fill="#8c6f95" stroke="#fffdf8" stroke-width="1.4" opacity=".68"/>
<circle cx="92.4" cy="327.9" r="4.7" fill="#8c6f95" stroke="#fffdf8" stroke-width="1.4" opacity=".68"/>
<circle cx="92.4" cy="329.4" r="6.6" fill="#6d5375" stroke="#fffdf8" stroke-width="1.4" opacity=".68"/>
<circle cx="92.4" cy="241.5" r="4.9" fill="#6b7f9b" stroke="#fffdf8" stroke-width="1.4" opacity=".68"/>
<circle cx="261.7" cy="255.0" r="4.9" fill="#b85f42" stroke="#fffdf8" stroke-width="1.4" opacity="1"/>
<circle cx="92.4" cy="235.0" r="4.9" fill="#6b7f9b" stroke="#fffdf8" stroke-width="1.4" opacity=".68"/>
<circle cx="92.4" cy="221.3" r="6.3" fill="#6b7f9b" stroke="#fffdf8" stroke-width="1.4" opacity=".68"/>
<circle cx="277.3" cy="238.9" r="5.2" fill="#b85f42" stroke="#fffdf8" stroke-width="1.4" opacity="1"/>
<circle cx="92.4" cy="233.8" r="6.4" fill="#4f8a64" stroke="#fffdf8" stroke-width="1.4" opacity=".68"/>
<circle cx="92.4" cy="214.5" r="8.3" fill="#4f8a64" stroke="#fffdf8" stroke-width="1.4" opacity=".68"/>
<circle cx="439.9" cy="193.2" r="6.2" fill="#a7a13a" stroke="#17211b" stroke-width="2.8" opacity="1"/>
<text x="439.9" y="183.1" text-anchor="middle" font-size="13" font-weight="900" fill="#17211b">*</text>
<text x="431.9" y="196.2" text-anchor="end" font-size="10" font-weight="700" fill="#17211b">5M</text>
<circle cx="452.9" cy="209.8" r="5.3" fill="#c8912f" stroke="#fffdf8" stroke-width="1.4" opacity="1"/>
<circle cx="557.5" cy="208.9" r="5.6" fill="#315f7f" stroke="#fffdf8" stroke-width="1.4" opacity="1"/>
<circle cx="600.0" cy="224.3" r="5.4" fill="#277c78" stroke="#fffdf8" stroke-width="1.4" opacity="1"/>
<text x="54" y="422" font-size="10" fill="#5e675f">Pick: GPT-5 Mini | Leader: GPT-5 Mini</text>
<rect x="658" y="116" width="580" height="320" rx="10" fill="#fffdf8" stroke="#d8ddd5"/>
<text x="672" y="144" font-size="15" font-weight="800" fill="#17211b">Extraction</text>
<rect x="700" y="164" width="388.5" height="62.85714285714286" fill="#dfeee8"/>
<rect x="1088.5" y="164" width="129.5" height="62.85714285714286" fill="#f3e7c8"/>
<rect x="700" y="226.85714285714286" width="388.5" height="157.14285714285714" fill="#f6e7dc"/>
<rect x="1088.5" y="226.85714285714286" width="129.5" height="157.14285714285714" fill="#eee7f1"/>
<rect x="700" y="164" width="518" height="220" fill="none" stroke="#d8ddd5"/>
<line x1="1088.5" y1="164" x2="1088.5" y2="384" stroke="#17211b" stroke-width="1" stroke-dasharray="4 4" opacity=".42"/>
<line x1="700" y1="226.9" x2="1218" y2="226.9" stroke="#17211b" stroke-width="1" stroke-dasharray="4 4" opacity=".42"/>
<text x="691" y="168.0" text-anchor="end" font-size="10" fill="#5e675f">9</text>
<text x="691" y="230.9" text-anchor="end" font-size="10" fill="#5e675f">7</text>
<text x="691" y="388.0" text-anchor="end" font-size="10" fill="#5e675f">2</text>
<text x="700" y="404" font-size="10" fill="#5e675f">low cost</text>
<text x="1218" y="404" text-anchor="end" font-size="10" fill="#5e675f">premium</text>
<circle cx="710.4" cy="360.9" r="7.3" fill="#8c6f95" stroke="#fffdf8" stroke-width="1.4" opacity=".68"/>
<circle cx="710.4" cy="298.0" r="4.7" fill="#8c6f95" stroke="#fffdf8" stroke-width="1.4" opacity=".68"/>
<circle cx="710.4" cy="289.7" r="6.6" fill="#6d5375" stroke="#fffdf8" stroke-width="1.4" opacity=".68"/>
<circle cx="710.4" cy="242.4" r="4.9" fill="#6b7f9b" stroke="#fffdf8" stroke-width="1.4" opacity=".68"/>
<circle cx="879.7" cy="267.7" r="4.9" fill="#b85f42" stroke="#fffdf8" stroke-width="1.4" opacity="1"/>
<circle cx="710.4" cy="261.0" r="4.9" fill="#6b7f9b" stroke="#fffdf8" stroke-width="1.4" opacity=".68"/>
<circle cx="710.4" cy="308.0" r="6.3" fill="#6b7f9b" stroke="#fffdf8" stroke-width="1.4" opacity=".68"/>
<circle cx="895.3" cy="233.5" r="5.2" fill="#b85f42" stroke="#fffdf8" stroke-width="1.4" opacity="1"/>
<circle cx="710.4" cy="246.8" r="6.4" fill="#4f8a64" stroke="#fffdf8" stroke-width="1.4" opacity=".68"/>
<circle cx="710.4" cy="204.5" r="8.3" fill="#4f8a64" stroke="#fffdf8" stroke-width="1.4" opacity=".68"/>
<circle cx="1057.9" cy="177.5" r="6.2" fill="#a7a13a" stroke="#17211b" stroke-width="2.8" opacity="1"/>
<text x="1057.9" y="167.3" text-anchor="middle" font-size="13" font-weight="900" fill="#17211b">*</text>
<text x="1049.9" y="180.5" text-anchor="end" font-size="10" font-weight="700" fill="#17211b">5M</text>
<circle cx="1070.9" cy="181.9" r="5.3" fill="#c8912f" stroke="#fffdf8" stroke-width="1.4" opacity="1"/>
<circle cx="1175.5" cy="192.8" r="5.6" fill="#315f7f" stroke="#fffdf8" stroke-width="1.4" opacity="1"/>
<circle cx="1218.0" cy="183.6" r="5.4" fill="#277c78" stroke="#fffdf8" stroke-width="1.4" opacity="1"/>
<text x="672" y="422" font-size="10" fill="#5e675f">Pick: GPT-5 Mini | Leader: GPT-5 Mini</text>
<rect x="40" y="478" width="580" height="320" rx="10" fill="#fffdf8" stroke="#d8ddd5"/>
<text x="54" y="506" font-size="15" font-weight="800" fill="#17211b">Constraint checks</text>
<rect x="82" y="526" width="388.5" height="62.85714285714289" fill="#dfeee8"/>
<rect x="470.5" y="526" width="129.5" height="62.85714285714289" fill="#f3e7c8"/>
<rect x="82" y="588.8571428571429" width="388.5" height="157.1428571428571" fill="#f6e7dc"/>
<rect x="470.5" y="588.8571428571429" width="129.5" height="157.1428571428571" fill="#eee7f1"/>
<rect x="82" y="526" width="518" height="220" fill="none" stroke="#d8ddd5"/>
<line x1="470.5" y1="526" x2="470.5" y2="746" stroke="#17211b" stroke-width="1" stroke-dasharray="4 4" opacity=".42"/>
<line x1="82" y1="588.9" x2="600" y2="588.9" stroke="#17211b" stroke-width="1" stroke-dasharray="4 4" opacity=".42"/>
<text x="73" y="530.0" text-anchor="end" font-size="10" fill="#5e675f">9</text>
<text x="73" y="592.9" text-anchor="end" font-size="10" fill="#5e675f">7</text>
<text x="73" y="750.0" text-anchor="end" font-size="10" fill="#5e675f">2</text>
<text x="82" y="766" font-size="10" fill="#5e675f">low cost</text>
<text x="600" y="766" text-anchor="end" font-size="10" fill="#5e675f">premium</text>
<circle cx="92.4" cy="746.0" r="7.3" fill="#8c6f95" stroke="#fffdf8" stroke-width="1.4" opacity=".68"/>
<circle cx="92.4" cy="697.5" r="4.7" fill="#8c6f95" stroke="#fffdf8" stroke-width="1.4" opacity=".68"/>
<circle cx="92.4" cy="741.6" r="6.6" fill="#6d5375" stroke="#fffdf8" stroke-width="1.4" opacity=".68"/>
<circle cx="92.4" cy="686.1" r="4.9" fill="#6b7f9b" stroke="#fffdf8" stroke-width="1.4" opacity=".68"/>
<circle cx="261.7" cy="635.3" r="4.9" fill="#b85f42" stroke="#fffdf8" stroke-width="1.4" opacity="1"/>
<circle cx="92.4" cy="631.5" r="4.9" fill="#6b7f9b" stroke="#fffdf8" stroke-width="1.4" opacity=".68"/>
<circle cx="92.4" cy="609.5" r="6.3" fill="#6b7f9b" stroke="#fffdf8" stroke-width="1.4" opacity=".68"/>
<circle cx="277.3" cy="617.2" r="5.2" fill="#b85f42" stroke="#fffdf8" stroke-width="1.4" opacity="1"/>
<circle cx="92.4" cy="627.8" r="6.4" fill="#4f8a64" stroke="#fffdf8" stroke-width="1.4" opacity=".68"/>
<circle cx="92.4" cy="585.3" r="8.3" fill="#4f8a64" stroke="#fffdf8" stroke-width="1.4" opacity=".68"/>
<circle cx="439.9" cy="564.4" r="6.2" fill="#a7a13a" stroke="#17211b" stroke-width="2.8" opacity="1"/>
<text x="431.9" y="567.4" text-anchor="end" font-size="10" font-weight="700" fill="#17211b">5M</text>
<circle cx="452.9" cy="585.5" r="5.3" fill="#c8912f" stroke="#fffdf8" stroke-width="1.4" opacity="1"/>
<circle cx="557.5" cy="548.4" r="5.6" fill="#315f7f" stroke="#fffdf8" stroke-width="1.4" opacity="1"/>
<text x="557.5" y="538.8" text-anchor="middle" font-size="13" font-weight="900" fill="#17211b">*</text>
<text x="549.5" y="551.4" text-anchor="end" font-size="10" font-weight="700" fill="#17211b">5.4</text>
<circle cx="600.0" cy="562.6" r="5.4" fill="#277c78" stroke="#fffdf8" stroke-width="1.4" opacity="1"/>
<text x="54" y="784" font-size="10" fill="#5e675f">Pick: GPT-5 Mini | Leader: GPT-5.4</text>
<rect x="658" y="478" width="580" height="320" rx="10" fill="#fffdf8" stroke="#d8ddd5"/>
<text x="672" y="506" font-size="15" font-weight="800" fill="#17211b">Routine planning</text>
<rect x="700" y="526" width="388.5" height="62.85714285714289" fill="#dfeee8"/>
<rect x="1088.5" y="526" width="129.5" height="62.85714285714289" fill="#f3e7c8"/>
<rect x="700" y="588.8571428571429" width="388.5" height="157.1428571428571" fill="#f6e7dc"/>
<rect x="1088.5" y="588.8571428571429" width="129.5" height="157.1428571428571" fill="#eee7f1"/>
<rect x="700" y="526" width="518" height="220" fill="none" stroke="#d8ddd5"/>
<line x1="1088.5" y1="526" x2="1088.5" y2="746" stroke="#17211b" stroke-width="1" stroke-dasharray="4 4" opacity=".42"/>
<line x1="700" y1="588.9" x2="1218" y2="588.9" stroke="#17211b" stroke-width="1" stroke-dasharray="4 4" opacity=".42"/>
<text x="691" y="530.0" text-anchor="end" font-size="10" fill="#5e675f">9</text>
<text x="691" y="592.9" text-anchor="end" font-size="10" fill="#5e675f">7</text>
<text x="691" y="750.0" text-anchor="end" font-size="10" fill="#5e675f">2</text>
<text x="700" y="766" font-size="10" fill="#5e675f">low cost</text>
<text x="1218" y="766" text-anchor="end" font-size="10" fill="#5e675f">premium</text>
<circle cx="710.4" cy="735.7" r="7.3" fill="#8c6f95" stroke="#fffdf8" stroke-width="1.4" opacity=".68"/>
<circle cx="710.4" cy="746.0" r="4.7" fill="#8c6f95" stroke="#fffdf8" stroke-width="1.4" opacity=".68"/>
<circle cx="710.4" cy="715.9" r="6.6" fill="#6d5375" stroke="#fffdf8" stroke-width="1.4" opacity=".68"/>
<circle cx="710.4" cy="696.7" r="4.9" fill="#6b7f9b" stroke="#fffdf8" stroke-width="1.4" opacity=".68"/>
<circle cx="879.7" cy="689.8" r="4.9" fill="#b85f42" stroke="#fffdf8" stroke-width="1.4" opacity="1"/>
<circle cx="710.4" cy="652.5" r="4.9" fill="#6b7f9b" stroke="#fffdf8" stroke-width="1.4" opacity=".68"/>
<circle cx="710.4" cy="617.2" r="6.3" fill="#6b7f9b" stroke="#fffdf8" stroke-width="1.4" opacity=".68"/>
<circle cx="895.3" cy="621.1" r="5.2" fill="#b85f42" stroke="#fffdf8" stroke-width="1.4" opacity="1"/>
<circle cx="710.4" cy="624.1" r="6.4" fill="#4f8a64" stroke="#fffdf8" stroke-width="1.4" opacity=".68"/>
<circle cx="710.4" cy="622.2" r="8.3" fill="#4f8a64" stroke="#fffdf8" stroke-width="1.4" opacity=".68"/>
<circle cx="1057.9" cy="614.2" r="6.2" fill="#a7a13a" stroke="#fffdf8" stroke-width="1.4" opacity="1"/>
<circle cx="1070.9" cy="597.4" r="5.3" fill="#c8912f" stroke="#17211b" stroke-width="2.8" opacity="1"/>
<text x="1062.9" y="600.4" text-anchor="end" font-size="10" font-weight="700" fill="#17211b">5.4M</text>
<circle cx="1175.5" cy="589.0" r="5.6" fill="#315f7f" stroke="#fffdf8" stroke-width="1.4" opacity="1"/>
<text x="1175.5" y="579.5" text-anchor="middle" font-size="13" font-weight="900" fill="#17211b">*</text>
<text x="1167.5" y="592.0" text-anchor="end" font-size="10" font-weight="700" fill="#17211b">5.4</text>
<circle cx="1218.0" cy="589.0" r="5.4" fill="#277c78" stroke="#fffdf8" stroke-width="1.4" opacity="1"/>
<text x="672" y="784" font-size="10" fill="#5e675f">Pick: GPT-5.4 Mini | Leader: GPT-5.4</text>
<rect x="40" y="840" width="580" height="320" rx="10" fill="#fffdf8" stroke="#d8ddd5"/>
<text x="54" y="868" font-size="15" font-weight="800" fill="#17211b">Pricing &amp; promo</text>
<rect x="82" y="888" width="388.5" height="62.85714285714289" fill="#dfeee8"/>
<rect x="470.5" y="888" width="129.5" height="62.85714285714289" fill="#f3e7c8"/>
<rect x="82" y="950.8571428571429" width="388.5" height="157.1428571428571" fill="#f6e7dc"/>
<rect x="470.5" y="950.8571428571429" width="129.5" height="157.1428571428571" fill="#eee7f1"/>
<rect x="82" y="888" width="518" height="220" fill="none" stroke="#d8ddd5"/>
<line x1="470.5" y1="888" x2="470.5" y2="1108" stroke="#17211b" stroke-width="1" stroke-dasharray="4 4" opacity=".42"/>
<line x1="82" y1="950.9" x2="600" y2="950.9" stroke="#17211b" stroke-width="1" stroke-dasharray="4 4" opacity=".42"/>
<text x="73" y="892.0" text-anchor="end" font-size="10" fill="#5e675f">9</text>
<text x="73" y="954.9" text-anchor="end" font-size="10" fill="#5e675f">7</text>
<text x="73" y="1112.0" text-anchor="end" font-size="10" fill="#5e675f">2</text>
<text x="82" y="1128" font-size="10" fill="#5e675f">low cost</text>
<text x="600" y="1128" text-anchor="end" font-size="10" fill="#5e675f">premium</text>
<circle cx="92.4" cy="1108.0" r="7.3" fill="#8c6f95" stroke="#fffdf8" stroke-width="1.4" opacity=".68"/>
<circle cx="92.4" cy="1108.0" r="4.7" fill="#8c6f95" stroke="#fffdf8" stroke-width="1.4" opacity=".68"/>
<circle cx="92.4" cy="1108.0" r="6.6" fill="#6d5375" stroke="#fffdf8" stroke-width="1.4" opacity=".68"/>
<circle cx="92.4" cy="1073.6" r="4.9" fill="#6b7f9b" stroke="#fffdf8" stroke-width="1.4" opacity=".68"/>
<circle cx="261.7" cy="1092.0" r="4.9" fill="#b85f42" stroke="#fffdf8" stroke-width="1.4" opacity="1"/>
<circle cx="92.4" cy="1066.9" r="4.9" fill="#6b7f9b" stroke="#fffdf8" stroke-width="1.4" opacity=".68"/>
<circle cx="92.4" cy="1033.1" r="6.3" fill="#6b7f9b" stroke="#fffdf8" stroke-width="1.4" opacity=".68"/>
<circle cx="277.3" cy="1023.1" r="5.2" fill="#b85f42" stroke="#fffdf8" stroke-width="1.4" opacity="1"/>
<circle cx="92.4" cy="1045.3" r="6.4" fill="#4f8a64" stroke="#fffdf8" stroke-width="1.4" opacity=".68"/>
<circle cx="92.4" cy="1012.7" r="8.3" fill="#4f8a64" stroke="#fffdf8" stroke-width="1.4" opacity=".68"/>
<circle cx="439.9" cy="993.0" r="6.2" fill="#a7a13a" stroke="#fffdf8" stroke-width="1.4" opacity="1"/>
<circle cx="452.9" cy="971.7" r="5.3" fill="#c8912f" stroke="#fffdf8" stroke-width="1.4" opacity="1"/>
<circle cx="557.5" cy="967.7" r="5.6" fill="#315f7f" stroke="#17211b" stroke-width="2.8" opacity="1"/>
<text x="549.5" y="970.7" text-anchor="end" font-size="10" font-weight="700" fill="#17211b">5.4</text>
<circle cx="600.0" cy="957.8" r="5.4" fill="#277c78" stroke="#fffdf8" stroke-width="1.4" opacity="1"/>
<text x="600.0" y="948.4" text-anchor="middle" font-size="13" font-weight="900" fill="#17211b">*</text>
<text x="592.0" y="960.8" text-anchor="end" font-size="10" font-weight="700" fill="#17211b">5.5</text>
<text x="54" y="1146" font-size="10" fill="#5e675f">Pick: GPT-5.4 | Leader: GPT-5.5</text>
<rect x="658" y="840" width="580" height="320" rx="10" fill="#fffdf8" stroke="#d8ddd5"/>
<text x="672" y="868" font-size="15" font-weight="800" fill="#17211b">Ambiguous judgment</text>
<rect x="700" y="888" width="388.5" height="62.85714285714289" fill="#dfeee8"/>
<rect x="1088.5" y="888" width="129.5" height="62.85714285714289" fill="#f3e7c8"/>
<rect x="700" y="950.8571428571429" width="388.5" height="157.1428571428571" fill="#f6e7dc"/>
<rect x="1088.5" y="950.8571428571429" width="129.5" height="157.1428571428571" fill="#eee7f1"/>
<rect x="700" y="888" width="518" height="220" fill="none" stroke="#d8ddd5"/>
<line x1="1088.5" y1="888" x2="1088.5" y2="1108" stroke="#17211b" stroke-width="1" stroke-dasharray="4 4" opacity=".42"/>
<line x1="700" y1="950.9" x2="1218" y2="950.9" stroke="#17211b" stroke-width="1" stroke-dasharray="4 4" opacity=".42"/>
<text x="691" y="892.0" text-anchor="end" font-size="10" fill="#5e675f">9</text>
<text x="691" y="954.9" text-anchor="end" font-size="10" fill="#5e675f">7</text>
<text x="691" y="1112.0" text-anchor="end" font-size="10" fill="#5e675f">2</text>
<text x="700" y="1128" font-size="10" fill="#5e675f">low cost</text>
<text x="1218" y="1128" text-anchor="end" font-size="10" fill="#5e675f">premium</text>
<circle cx="710.4" cy="1107.7" r="7.3" fill="#8c6f95" stroke="#fffdf8" stroke-width="1.4" opacity=".68"/>
<circle cx="710.4" cy="1093.4" r="4.7" fill="#8c6f95" stroke="#fffdf8" stroke-width="1.4" opacity=".68"/>
<circle cx="710.4" cy="1065.4" r="6.6" fill="#6d5375" stroke="#fffdf8" stroke-width="1.4" opacity=".68"/>
<circle cx="710.4" cy="1107.1" r="4.9" fill="#6b7f9b" stroke="#fffdf8" stroke-width="1.4" opacity=".68"/>
<circle cx="879.7" cy="1000.0" r="4.9" fill="#b85f42" stroke="#fffdf8" stroke-width="1.4" opacity="1"/>
<circle cx="710.4" cy="1051.2" r="4.9" fill="#6b7f9b" stroke="#fffdf8" stroke-width="1.4" opacity=".68"/>
<circle cx="710.4" cy="1004.8" r="6.3" fill="#6b7f9b" stroke="#fffdf8" stroke-width="1.4" opacity=".68"/>
<circle cx="895.3" cy="1057.9" r="5.2" fill="#b85f42" stroke="#fffdf8" stroke-width="1.4" opacity="1"/>
<circle cx="710.4" cy="966.0" r="6.4" fill="#4f8a64" stroke="#fffdf8" stroke-width="1.4" opacity=".68"/>
<circle cx="710.4" cy="938.2" r="8.3" fill="#4f8a64" stroke="#fffdf8" stroke-width="1.4" opacity=".68"/>
<circle cx="1057.9" cy="992.9" r="6.2" fill="#a7a13a" stroke="#fffdf8" stroke-width="1.4" opacity="1"/>
<circle cx="1070.9" cy="941.2" r="5.3" fill="#c8912f" stroke="#17211b" stroke-width="2.8" opacity="1"/>
<text x="1062.9" y="944.2" text-anchor="end" font-size="10" font-weight="700" fill="#17211b">5.4M</text>
<circle cx="1175.5" cy="902.7" r="5.6" fill="#315f7f" stroke="#fffdf8" stroke-width="1.4" opacity="1"/>
<text x="1175.5" y="893.2" text-anchor="middle" font-size="13" font-weight="900" fill="#17211b">*</text>
<text x="1167.5" y="905.7" text-anchor="end" font-size="10" font-weight="700" fill="#17211b">5.4</text>
<circle cx="1218.0" cy="928.4" r="5.4" fill="#277c78" stroke="#fffdf8" stroke-width="1.4" opacity="1"/>
<text x="672" y="1146" font-size="10" fill="#5e675f">Pick: GPT-5.4 Mini | Leader: GPT-5.4</text>
<rect x="40" y="1202" width="580" height="320" rx="10" fill="#fffdf8" stroke="#d8ddd5"/>
<text x="54" y="1230" font-size="15" font-weight="800" fill="#17211b">Portfolio tradeoff</text>
<rect x="82" y="1250" width="388.5" height="62.85714285714289" fill="#dfeee8"/>
<rect x="470.5" y="1250" width="129.5" height="62.85714285714289" fill="#f3e7c8"/>
<rect x="82" y="1312.857142857143" width="388.5" height="157.1428571428571" fill="#f6e7dc"/>
<rect x="470.5" y="1312.857142857143" width="129.5" height="157.1428571428571" fill="#eee7f1"/>
<rect x="82" y="1250" width="518" height="220" fill="none" stroke="#d8ddd5"/>
<line x1="470.5" y1="1250" x2="470.5" y2="1470" stroke="#17211b" stroke-width="1" stroke-dasharray="4 4" opacity=".42"/>
<line x1="82" y1="1312.9" x2="600" y2="1312.9" stroke="#17211b" stroke-width="1" stroke-dasharray="4 4" opacity=".42"/>
<text x="73" y="1254.0" text-anchor="end" font-size="10" fill="#5e675f">9</text>
<text x="73" y="1316.9" text-anchor="end" font-size="10" fill="#5e675f">7</text>
<text x="73" y="1474.0" text-anchor="end" font-size="10" fill="#5e675f">2</text>
<text x="82" y="1490" font-size="10" fill="#5e675f">low cost</text>
<text x="600" y="1490" text-anchor="end" font-size="10" fill="#5e675f">premium</text>
<circle cx="92.4" cy="1459.9" r="7.3" fill="#8c6f95" stroke="#fffdf8" stroke-width="1.4" opacity=".68"/>
<circle cx="92.4" cy="1452.2" r="4.7" fill="#8c6f95" stroke="#fffdf8" stroke-width="1.4" opacity=".68"/>
<circle cx="92.4" cy="1418.7" r="6.6" fill="#6d5375" stroke="#fffdf8" stroke-width="1.4" opacity=".68"/>
<circle cx="92.4" cy="1347.7" r="4.9" fill="#6b7f9b" stroke="#fffdf8" stroke-width="1.4" opacity=".68"/>
<circle cx="261.7" cy="1329.7" r="4.9" fill="#b85f42" stroke="#fffdf8" stroke-width="1.4" opacity="1"/>
<circle cx="92.4" cy="1344.0" r="4.9" fill="#6b7f9b" stroke="#fffdf8" stroke-width="1.4" opacity=".68"/>
<circle cx="92.4" cy="1357.3" r="6.3" fill="#6b7f9b" stroke="#fffdf8" stroke-width="1.4" opacity=".68"/>
<circle cx="277.3" cy="1307.5" r="5.2" fill="#b85f42" stroke="#fffdf8" stroke-width="1.4" opacity="1"/>
<circle cx="92.4" cy="1320.0" r="6.4" fill="#4f8a64" stroke="#fffdf8" stroke-width="1.4" opacity=".68"/>
<circle cx="92.4" cy="1296.8" r="8.3" fill="#4f8a64" stroke="#fffdf8" stroke-width="1.4" opacity=".68"/>
<circle cx="439.9" cy="1279.0" r="6.2" fill="#a7a13a" stroke="#fffdf8" stroke-width="1.4" opacity="1"/>
<text x="439.9" y="1268.8" text-anchor="middle" font-size="13" font-weight="900" fill="#17211b">*</text>
<text x="431.9" y="1282.0" text-anchor="end" font-size="10" font-weight="700" fill="#17211b">5M</text>
<circle cx="452.9" cy="1281.4" r="5.3" fill="#c8912f" stroke="#17211b" stroke-width="2.8" opacity="1"/>
<text x="444.9" y="1284.4" text-anchor="end" font-size="10" font-weight="700" fill="#17211b">5.4M</text>
<circle cx="557.5" cy="1361.9" r="5.6" fill="#315f7f" stroke="#fffdf8" stroke-width="1.4" opacity="1"/>
<circle cx="600.0" cy="1309.8" r="5.4" fill="#277c78" stroke="#fffdf8" stroke-width="1.4" opacity="1"/>
<text x="54" y="1508" font-size="10" fill="#5e675f">Pick: GPT-5.4 Mini | Leader: GPT-5 Mini</text>
<rect x="658" y="1202" width="580" height="320" rx="10" fill="#fffdf8" stroke="#d8ddd5"/>
<text x="672" y="1230" font-size="15" font-weight="800" fill="#17211b">Ops triage</text>
<rect x="700" y="1250" width="388.5" height="62.85714285714289" fill="#dfeee8"/>
<rect x="1088.5" y="1250" width="129.5" height="62.85714285714289" fill="#f3e7c8"/>
<rect x="700" y="1312.857142857143" width="388.5" height="157.1428571428571" fill="#f6e7dc"/>
<rect x="1088.5" y="1312.857142857143" width="129.5" height="157.1428571428571" fill="#eee7f1"/>
<rect x="700" y="1250" width="518" height="220" fill="none" stroke="#d8ddd5"/>
<line x1="1088.5" y1="1250" x2="1088.5" y2="1470" stroke="#17211b" stroke-width="1" stroke-dasharray="4 4" opacity=".42"/>
<line x1="700" y1="1312.9" x2="1218" y2="1312.9" stroke="#17211b" stroke-width="1" stroke-dasharray="4 4" opacity=".42"/>
<text x="691" y="1254.0" text-anchor="end" font-size="10" fill="#5e675f">9</text>
<text x="691" y="1316.9" text-anchor="end" font-size="10" fill="#5e675f">7</text>
<text x="691" y="1474.0" text-anchor="end" font-size="10" fill="#5e675f">2</text>
<text x="700" y="1490" font-size="10" fill="#5e675f">low cost</text>
<text x="1218" y="1490" text-anchor="end" font-size="10" fill="#5e675f">premium</text>
<circle cx="710.4" cy="1460.8" r="7.3" fill="#8c6f95" stroke="#fffdf8" stroke-width="1.4" opacity=".68"/>
<circle cx="710.4" cy="1415.6" r="4.7" fill="#8c6f95" stroke="#fffdf8" stroke-width="1.4" opacity=".68"/>
<circle cx="710.4" cy="1420.8" r="6.6" fill="#6d5375" stroke="#fffdf8" stroke-width="1.4" opacity=".68"/>
<circle cx="710.4" cy="1365.9" r="4.9" fill="#6b7f9b" stroke="#fffdf8" stroke-width="1.4" opacity=".68"/>
<circle cx="879.7" cy="1369.9" r="4.9" fill="#b85f42" stroke="#fffdf8" stroke-width="1.4" opacity="1"/>
<circle cx="710.4" cy="1363.0" r="4.9" fill="#6b7f9b" stroke="#fffdf8" stroke-width="1.4" opacity=".68"/>
<circle cx="710.4" cy="1356.3" r="6.3" fill="#6b7f9b" stroke="#fffdf8" stroke-width="1.4" opacity=".68"/>
<circle cx="895.3" cy="1415.6" r="5.2" fill="#b85f42" stroke="#fffdf8" stroke-width="1.4" opacity="1"/>
<circle cx="710.4" cy="1372.4" r="6.4" fill="#4f8a64" stroke="#fffdf8" stroke-width="1.4" opacity=".68"/>
<circle cx="710.4" cy="1347.4" r="8.3" fill="#4f8a64" stroke="#fffdf8" stroke-width="1.4" opacity=".68"/>
<circle cx="1057.9" cy="1384.9" r="6.2" fill="#a7a13a" stroke="#fffdf8" stroke-width="1.4" opacity="1"/>
<circle cx="1070.9" cy="1318.3" r="5.3" fill="#c8912f" stroke="#17211b" stroke-width="2.8" opacity="1"/>
<text x="1062.9" y="1321.3" text-anchor="end" font-size="10" font-weight="700" fill="#17211b">5.4M</text>
<circle cx="1175.5" cy="1304.1" r="5.6" fill="#315f7f" stroke="#fffdf8" stroke-width="1.4" opacity="1"/>
<circle cx="1218.0" cy="1296.4" r="5.4" fill="#277c78" stroke="#fffdf8" stroke-width="1.4" opacity="1"/>
<text x="1218.0" y="1287.0" text-anchor="middle" font-size="13" font-weight="900" fill="#17211b">*</text>
<text x="1210.0" y="1299.4" text-anchor="end" font-size="10" font-weight="700" fill="#17211b">5.5</text>
<text x="672" y="1508" font-size="10" fill="#5e675f">Pick: GPT-5.4 Mini | Leader: GPT-5.5</text>
<circle cx="34" cy="1538" r="6" fill="#277c78"/>
<text x="46" y="1542" font-size="12" fill="#5e675f">Premium frontier</text>
<circle cx="204" cy="1538" r="6" fill="#c8912f"/>
<text x="216" y="1542" font-size="12" fill="#5e675f">Efficient frontier</text>
<circle cx="374" cy="1538" r="6" fill="#4f8a64"/>
<text x="386" y="1542" font-size="12" fill="#5e675f">Free hosted</text>
<circle cx="544" cy="1538" r="6" fill="#b85f42"/>
<text x="556" y="1542" font-size="12" fill="#5e675f">Small paid/open</text>
<circle cx="714" cy="1538" r="6" fill="#6d5375"/>
<text x="726" y="1542" font-size="12" fill="#5e675f">Local</text>
<text x="896" y="1542" font-size="12" fill="#5e675f">Black ring = economic pick; * = quality leader</text>
</svg>
